# xmcd CD database file
#
# Track frame offsets:
#	150
#	13492
#	27012
#	28832
#	42160
#	57112
#	70107
#	73147
#	86387
#	100837
#	112412
#	125917
#	140852
#	152642
#	164237
#	177927
#	191502
#	203052
#	216382
#	228967
#	241402
#	253892
#	254372
#	267947
#	279347
#	282112
#	294122
#	295802
#
# Disc length: 4095 seconds
#
# Revision: 0
# Processed by: cddbd v1.5.1PL0 Copyright (c) Steve Scherf et al.
# Submitted via: CDex 1.51
#
DISCID=b60ffd1c
DTITLE=Charlie Parker - The Complete Charlie Parker On Savoy Years (Disc-2)
DYEAR=1995
DGENRE=Jazz
TTITLE0=THRIVING ON A RIFF ORIGINAL TAKE
TTITLE1=THRIVING ON A RIFF NEW TAKE.1
TTITLE2=THRIVING ON A RIFF SHORT TAKE.2
TTITLE3=THRIVING ON A RIFF ORIGINAL TAKE.3
TTITLE4=MEANDERING NEW TAKE.1
TTITLE5=KOKO ORIGINAL MASTER
TTITLE6=KOKO SHORT TAKE.1
TTITLE7=KOKO ORIGINAL TAKE.2
TTITLE8=DIZZY BOOGIE SHORT TAKE.1
TTITLE9=FLAT TOOT FLOOGIE ORIGINAL TAKE.2
TTITLE10=POPITY POP ORIGINAL TAKE.1
TTITLE11=SLIM'S JAM NEW TAKE.2
TTITLE12=DONNA LEE NEW TAKE.1
TTITLE13=DONNA LEE NEW TAKE.2
TTITLE14=DONNA LEE NEW TAKE.3
TTITLE15=DONNA LEE NEW TAKE.4
TTITLE16=DONNA LEE ORIGINAL TAKE.3
TTITLE17=CHASING THE BIRD NEW TAKE.1
TTITLE18=CHASING THE BIRD SHORT TAKE.2
TTITLE19=CHASING THE BIRD NEW TAKE.3
TTITLE20=CHASING THE BIRD SHORT TAKE.4
TTITLE21=CHERYL ORIGINAL TAKE.2
TTITLE22=CHERYL SHORT TAKE.1
TTITLE23=BUZZY NEW TAKE.1
TTITLE24=BUZZY SHORT TAKE.2
TTITLE25=BUZZY NEW TAKE.3
TTITLE26=BUZZY SHORT TAKE.4
TTITLE27=BUZZY ORIGINAL TAKE
EXTD=YEAR: 1995
EXTT0=
EXTT1=
EXTT2=
EXTT3=
EXTT4=
EXTT5=
EXTT6=
EXTT7=
EXTT8=
EXTT9=
EXTT10=
EXTT11=
EXTT12=
EXTT13=
EXTT14=
EXTT15=
EXTT16=
EXTT17=
EXTT18=
EXTT19=
EXTT20=
EXTT21=
EXTT22=
EXTT23=
EXTT24=
EXTT25=
EXTT26=
EXTT27=
PLAYORDER=
